<?xml version="1.0" encoding="UTF-8" standalone="no"?>
<!DOCTYPE svg PUBLIC "-//W3C//DTD SVG 1.1//EN" "http://www.w3.org/Graphics/SVG/1.1/DTD/svg11.dtd">
<svg width="100%" height="100%" viewBox="0 0 120 32" version="1.1" xmlns="http://www.w3.org/2000/svg" xmlns:xlink="http://www.w3.org/1999/xlink" xml:space="preserve" style="fill-rule:evenodd;clip-rule:evenodd;stroke-linejoin:round;stroke-miterlimit:2;">
    <g>
        <g transform="matrix(0.884155,0,0,0.884155,-597.32,-84.4838)">
            <g transform="matrix(1,0,0,0.99,0,1.30031)">
                <g transform="matrix(48.3692,0,0,48.3692,673.165,130.031)">
                    <path d="M0.406,-0l-0.134,-0.254l0,0.254l-0.222,-0l-0,-0.708l0.33,0c0.057,0 0.106,0.01 0.147,0.03c0.041,0.021 0.071,0.048 0.092,0.083c0.02,0.035 0.03,0.075 0.03,0.119c0,0.047 -0.013,0.089 -0.039,0.126c-0.027,0.037 -0.065,0.063 -0.114,0.079l0.154,0.271l-0.244,-0Zm-0.134,-0.402l0.088,-0c0.021,-0 0.037,-0.005 0.048,-0.015c0.011,-0.009 0.016,-0.024 0.016,-0.045c0,-0.019 -0.006,-0.033 -0.017,-0.044c-0.01,-0.011 -0.026,-0.016 -0.047,-0.016l-0.088,0l0,0.12Z" style="fill:#001b30;fill-rule:nonzero;"/>
                </g>
            </g>
            <g transform="matrix(1,0,0,0.99,0,1.30031)">
                <g transform="matrix(48.3692,0,0,48.3692,705.572,130.031)">
                    <path d="M0.395,-0.72c0.067,0 0.128,0.015 0.183,0.046c0.055,0.031 0.099,0.075 0.131,0.13c0.033,0.055 0.049,0.118 0.049,0.187c-0,0.069 -0.016,0.132 -0.049,0.187c-0.032,0.055 -0.076,0.099 -0.132,0.13c-0.055,0.031 -0.116,0.047 -0.182,0.047c-0.067,-0 -0.128,-0.016 -0.184,-0.047c-0.055,-0.031 -0.099,-0.075 -0.132,-0.13c-0.033,-0.055 -0.049,-0.118 -0.049,-0.187c-0,-0.069 0.016,-0.132 0.049,-0.187c0.033,-0.055 0.077,-0.099 0.132,-0.13c0.056,-0.031 0.117,-0.046 0.184,-0.046Zm-0,0.205c-0.045,-0 -0.079,0.014 -0.103,0.042c-0.024,0.029 -0.036,0.067 -0.036,0.116c0,0.048 0.012,0.086 0.036,0.114c0.024,0.029 0.058,0.043 0.103,0.043c0.044,-0 0.078,-0.014 0.102,-0.043c0.024,-0.028 0.036,-0.066 0.036,-0.114c0,-0.049 -0.012,-0.087 -0.036,-0.116c-0.024,-0.028 -0.058,-0.042 -0.102,-0.042Z" style="fill:#fff;fill-opacity:0;fill-rule:nonzero;"/>
                </g>
            </g>
            <g transform="matrix(1,0,0,0.99,0,1.30031)">
                <g transform="matrix(48.3692,0,0,48.3692,743.687,130.031)">
                    <path d="M0.395,-0.72c0.067,0 0.128,0.015 0.183,0.046c0.055,0.031 0.099,0.075 0.131,0.13c0.033,0.055 0.049,0.118 0.049,0.187c-0,0.069 -0.016,0.132 -0.049,0.187c-0.032,0.055 -0.076,0.099 -0.132,0.13c-0.055,0.031 -0.116,0.047 -0.182,0.047c-0.067,-0 -0.128,-0.016 -0.184,-0.047c-0.055,-0.031 -0.099,-0.075 -0.132,-0.13c-0.033,-0.055 -0.049,-0.118 -0.049,-0.187c-0,-0.069 0.016,-0.132 0.049,-0.187c0.033,-0.055 0.077,-0.099 0.132,-0.13c0.056,-0.031 0.117,-0.046 0.184,-0.046Zm-0,0.205c-0.045,-0 -0.079,0.014 -0.103,0.042c-0.024,0.029 -0.036,0.067 -0.036,0.116c0,0.048 0.012,0.086 0.036,0.114c0.024,0.029 0.058,0.043 0.103,0.043c0.044,-0 0.078,-0.014 0.102,-0.043c0.024,-0.028 0.036,-0.066 0.036,-0.114c0,-0.049 -0.012,-0.087 -0.036,-0.116c-0.024,-0.028 -0.058,-0.042 -0.102,-0.042Z" style="fill:#001b30;fill-rule:nonzero;"/>
                </g>
                <g transform="matrix(48.3692,0,0,48.3692,781.802,130.031)">
                    <path d="M0.606,-0.708l0,0.176l-0.188,0l0,0.532l-0.222,-0l0,-0.532l-0.186,0l0,-0.176l0.596,0Z" style="fill:#001b30;fill-rule:nonzero;"/>
                </g>
            </g>
        </g>
        <g>
            <path d="M58.585,12.171c-1.863,-8.374 -10.173,-13.66 -18.547,-11.798c-8.374,1.863 -13.661,10.174 -11.798,18.548c1.863,8.374 10.173,13.66 18.547,11.798c8.374,-1.863 13.661,-10.174 11.798,-18.548Z" style="fill:url(#_Linear1);"/>
            <clipPath id="_clip2">
                <path d="M58.585,12.171c-1.863,-8.374 -10.173,-13.66 -18.547,-11.798c-8.374,1.863 -13.661,10.174 -11.798,18.548c1.863,8.374 10.173,13.66 18.547,11.798c8.374,-1.863 13.661,-10.174 11.798,-18.548Z"/>
            </clipPath>
            <g clip-path="url(#_clip2)">
                <path d="M53.421,16.259c-0.646,-0 -1.171,-0.524 -1.171,-1.171c-0,-1.937 -1.576,-3.514 -3.514,-3.514c-0.646,0 -1.171,-0.524 -1.171,-1.171c0,-0.646 0.525,-1.171 1.171,-1.171c3.231,-0 5.856,2.626 5.856,5.856c-0,0.647 -0.524,1.171 -1.171,1.171Z" style="fill:url(#_Linear3);fill-rule:nonzero;"/>
                <g>
                    <g id="right">
                        <path d="M47.564,8.988c-0,-1.936 -1.576,-3.513 -3.514,-3.513c-0.646,-0 -1.171,-0.524 -1.171,-1.172c0,-0.646 0.525,-1.171 1.171,-1.171c2.968,0 5.499,1.944 5.805,5.079c0.033,0.052 0.001,10.979 0.001,10.979c0,0.645 0.577,1.171 1.221,1.171c0.648,0 1.172,0.525 1.172,1.171c-0,0.648 -0.524,1.172 -1.172,1.172c-1.779,-0 -3.256,-1.332 -3.483,-3.052c-0.02,-0.041 -0.03,-0.083 -0.03,-0.127l-0,-10.537Z" style="fill:url(#_Linear4);fill-rule:nonzero;"/>
                    </g>
                    <g id="left">
                        <path d="M33.064,16.248c-0.561,-0.323 -0.753,-1.039 -0.429,-1.6c0.323,-0.559 1.039,-0.752 1.6,-0.428c0.557,0.322 1.277,0.13 1.6,-0.429c0.323,-0.56 1.039,-0.752 1.599,-0.429c0.56,0.324 0.752,1.041 0.429,1.6c-0.969,1.678 -3.123,2.254 -4.799,1.286Z" style="fill:url(#_Linear5);fill-rule:nonzero;"/>
                        <path d="M35.846,12.821c0.34,-2.908 2.817,-5.171 5.816,-5.171c0.646,-0 1.171,0.525 1.171,1.171c-0,0.647 -0.525,1.171 -1.171,1.171c-1.938,0 -3.514,1.577 -3.514,3.514l0,6.05c-0.167,1.637 -1.846,2.981 -3.513,2.981c-0.647,-0 -1.171,-0.524 -1.171,-1.172c-0,-0.646 0.524,-1.171 1.171,-1.171c0.644,0 1.22,-0.526 1.22,-1.171c0,0 -0.035,-6.148 -0.009,-6.202Z" style="fill:url(#_Linear6);fill-rule:nonzero;"/>
                    </g>
                    <path d="M42.94,27.035c-0.647,-0 -1.171,-0.367 -1.171,-0.821l0,-41.059c0,-0.453 0.524,-0.821 1.171,-0.821c0.646,-0 1.171,0.368 1.171,0.821l0,41.059c0,0.454 -0.525,0.821 -1.171,0.821Z" style="fill:#fff;fill-rule:nonzero;"/>
                </g>
            </g>
        </g>
    </g>
    <defs>
        <linearGradient id="_Linear1" x1="0" y1="0" x2="1" y2="0" gradientUnits="userSpaceOnUse" gradientTransform="matrix(-16.6518,22.7584,-22.7584,-16.6518,47.6537,6.30617)"><stop offset="0" style="stop-color:#1da1ff;stop-opacity:1"/><stop offset="1" style="stop-color:#0268fc;stop-opacity:1"/></linearGradient>
        <linearGradient id="_Linear3" x1="0" y1="0" x2="1" y2="0" gradientUnits="userSpaceOnUse" gradientTransform="matrix(-8.67681,-1.31342,1.31342,-8.67681,57.1955,11.5717)"><stop offset="0" style="stop-color:#fff;stop-opacity:1"/><stop offset="0.58" style="stop-color:#f1f1f1;stop-opacity:1"/><stop offset="0.8" style="stop-color:#d2d2d2;stop-opacity:1"/><stop offset="1" style="stop-color:#b3b3b3;stop-opacity:1"/></linearGradient>
        <linearGradient id="_Linear4" x1="0" y1="0" x2="1" y2="0" gradientUnits="userSpaceOnUse" gradientTransform="matrix(-8.64383,-2.77633,2.77633,-8.64383,51.5231,5.90863)"><stop offset="0" style="stop-color:#fff;stop-opacity:1"/><stop offset="0.52" style="stop-color:#ededed;stop-opacity:1"/><stop offset="1" style="stop-color:#b2b2b2;stop-opacity:1"/></linearGradient>
        <linearGradient id="_Linear5" x1="0" y1="0" x2="1" y2="0" gradientUnits="userSpaceOnUse" gradientTransform="matrix(3.8029,-0.930653,0.930653,3.8029,32.8683,16.1073)"><stop offset="0" style="stop-color:#fff;stop-opacity:1"/><stop offset="0.48" style="stop-color:#ebebeb;stop-opacity:1"/><stop offset="1" style="stop-color:#b2b2b2;stop-opacity:1"/></linearGradient>
        <linearGradient id="_Linear6" x1="0" y1="0" x2="1" y2="0" gradientUnits="userSpaceOnUse" gradientTransform="matrix(9.9501,0.104624,-0.104624,9.9501,32.9292,8.34263)"><stop offset="0" style="stop-color:#fff;stop-opacity:1"/><stop offset="0.56" style="stop-color:#efefef;stop-opacity:1"/><stop offset="1" style="stop-color:#b2b2b2;stop-opacity:1"/></linearGradient>
    </defs>
</svg>
