<?xml version="1.0" encoding="UTF-8" standalone="no"?>
<!DOCTYPE svg PUBLIC "-//W3C//DTD SVG 1.1//EN" "http://www.w3.org/Graphics/SVG/1.1/DTD/svg11.dtd">
<svg xmlns="http://www.w3.org/2000/svg" xmlns:xlink="http://www.w3.org/1999/xlink" xmlns:serif="http://www.serif.com/" width="100%" height="100%" viewBox="0 0 512 512" version="1.1" style="fill-rule:evenodd;clip-rule:evenodd;stroke-linejoin:round;stroke-miterlimit:2;" xml:space="preserve">
    <rect x="0" y="0" width="512" height="512" style="fill:#ebebeb;"/>
    <path d="M269.583,320.519l-27.166,0c-1.863,0 -3.396,-1.532 -3.396,-3.395l-0,-16.711c-0.798,-0.306 -1.603,-0.635 -2.415,-0.999l-11.824,11.825c-0.636,0.636 -1.501,0.994 -2.401,0.995c-0.9,-0.001 -1.764,-0.359 -2.401,-0.995l-19.22,-19.221c-1.317,-1.317 -1.317,-3.484 -0,-4.802l11.824,-11.827c-0.363,-0.812 -0.679,-1.613 -0.998,-2.411l-16.711,-0c-1.863,-0 -3.396,-1.533 -3.396,-3.396l0,-27.167c0,-1.863 1.533,-3.396 3.396,-3.396l16.711,0c0.305,-0.798 0.635,-1.599 0.998,-2.411l-11.824,-11.827c-1.317,-1.318 -1.317,-3.485 -0,-4.802l19.22,-19.221c1.34,-1.266 3.463,-1.266 4.802,0l11.824,11.825c0.812,-0.364 1.617,-0.679 2.415,-0.999l-0,-16.711c-0,-1.862 1.533,-3.395 3.396,-3.395l27.166,-0c1.863,-0 3.396,1.533 3.396,3.395l0,16.711c0.798,0.306 1.603,0.635 2.415,0.999l11.824,-11.825c0.636,-0.636 1.501,-0.994 2.401,-0.995c0.9,0.001 1.764,0.359 2.401,0.995l19.22,19.221c1.317,1.317 1.317,3.484 0,4.802l-11.824,11.827c0.363,0.812 0.679,1.613 0.998,2.411l16.711,0c1.863,0 3.396,1.533 3.396,3.396l-0,27.167c-0,1.863 -1.533,3.396 -3.396,3.396l-16.711,-0c-0.305,0.798 -0.635,1.599 -0.998,2.411l11.824,11.827c1.317,1.318 1.317,3.485 0,4.802l-19.22,19.221c-1.34,1.266 -3.463,1.266 -4.802,-0l-11.824,-11.825c-0.812,0.364 -1.617,0.679 -2.415,0.999l0,16.711c0,1.863 -1.533,3.395 -3.396,3.395Zm-23.771,-6.791l20.376,-0l-0,-15.723c0.001,-1.478 0.967,-2.793 2.377,-3.236c2.071,-0.669 4.088,-1.499 6.031,-2.483c1.303,-0.651 2.887,-0.395 3.918,0.635l11.105,11.115l14.419,-14.419l-11.115,-11.114c-1.03,-1.031 -1.287,-2.616 -0.635,-3.919c0.983,-1.943 1.813,-3.959 2.482,-6.031c0.444,-1.41 1.759,-2.376 3.237,-2.377l15.722,-0l0,-20.365l-15.722,-0c-1.478,-0.001 -2.793,-0.967 -3.237,-2.377c-0.669,-2.072 -1.499,-4.088 -2.482,-6.031c-0.652,-1.304 -0.395,-2.888 0.635,-3.919l11.115,-11.104l-14.419,-14.419l-11.115,11.115c-1.031,1.03 -2.615,1.286 -3.919,0.635c-1.942,-0.984 -3.959,-1.813 -6.031,-2.483c-1.409,-0.443 -2.375,-1.758 -2.377,-3.236l0,-15.723l-20.365,0l0,15.723c-0.001,1.478 -0.967,2.793 -2.377,3.236c-2.071,0.67 -4.088,1.499 -6.031,2.483c-1.303,0.651 -2.887,0.395 -3.918,-0.635l-11.105,-11.115l-14.419,14.419l11.115,11.114c1.03,1.031 1.287,2.616 0.635,3.919c-0.983,1.943 -1.813,3.959 -2.482,6.031c-0.444,1.41 -1.759,2.376 -3.237,2.377l-15.722,0l-0,20.375l15.722,0c1.478,0.002 2.793,0.968 3.237,2.377c0.669,2.072 1.499,4.089 2.482,6.031c0.652,1.304 0.395,2.888 -0.635,3.919l-11.115,11.094l14.419,14.419l11.115,-11.115c1.031,-1.03 2.615,-1.286 3.919,-0.635c1.942,0.984 3.959,1.814 6.031,2.483c1.409,0.443 2.375,1.758 2.377,3.236l-0.011,15.723Z" style="fill-opacity:0.19;fill-rule:nonzero;"/>
    <path d="M256,283.165c-14.903,0 -27.167,-12.263 -27.167,-27.166c0,-14.904 12.264,-27.167 27.167,-27.167c14.903,-0 27.167,12.263 27.167,27.167c-0.017,14.896 -12.27,27.149 -27.167,27.166Zm-0,-47.542c-11.177,0 -20.375,9.198 -20.375,20.376c-0,11.177 9.198,20.375 20.375,20.375c11.177,-0 20.375,-9.198 20.375,-20.375c-0.011,-11.174 -9.202,-20.364 -20.375,-20.376Z" style="fill-opacity:0.19;fill-rule:nonzero;"/>
    <path d="M177.896,259.394c-1.863,0 -3.396,-1.533 -3.396,-3.395c0.052,-44.69 36.81,-81.449 81.5,-81.501c1.863,0 3.396,1.533 3.396,3.396c-0,1.863 -1.533,3.396 -3.396,3.396c-40.966,0.047 -74.662,33.742 -74.708,74.709c-0,1.862 -1.533,3.395 -3.396,3.395Z" style="fill-opacity:0.19;fill-rule:nonzero;"/>
    <path d="M256,337.499c-1.863,-0 -3.396,-1.533 -3.396,-3.396c0,-1.863 1.533,-3.396 3.396,-3.396c40.966,-0.047 74.662,-33.742 74.708,-74.708c0,-1.863 1.533,-3.396 3.396,-3.396c1.863,-0 3.396,1.533 3.396,3.396c-0.052,44.689 -36.81,81.448 -81.5,81.5Z" style="fill-opacity:0.19;fill-rule:nonzero;"/>
    <path d="M331.9,188.082l12.392,-0c1.863,-0 3.396,-1.533 3.396,-3.396c-0,-1.863 -1.533,-3.396 -3.396,-3.396l-20.375,0c-1.863,0 -3.396,1.533 -3.396,3.396l-0,20.375c-0,1.863 1.533,3.396 3.396,3.396c1.863,-0 3.396,-1.533 3.396,-3.396l-0,-11.93c15.388,17.311 23.856,39.707 23.77,62.868c0,0.006 0,0.012 0,0.018c0,52.161 -42.922,95.084 -95.083,95.084c-19.994,-0 -39.487,-6.306 -55.692,-18.017c-0.595,-0.461 -1.326,-0.711 -2.079,-0.711c-1.863,0 -3.396,1.533 -3.396,3.396c0,1.128 0.563,2.186 1.499,2.816c17.362,12.547 38.247,19.303 59.668,19.303c55.887,-0 101.875,-45.988 101.875,-101.875c0,-0.005 0,-0.01 0,-0.014c0.092,-25.075 -9.174,-49.303 -25.975,-67.917Z" style="fill-opacity:0.19;fill-rule:nonzero;"/>
    <path d="M315.716,173.449c-17.372,-12.568 -38.275,-19.337 -59.716,-19.337c-55.887,0 -101.875,45.988 -101.875,101.875c-0,0.004 -0,0.008 -0,0.012c-0.092,25.074 9.174,49.302 25.975,67.916l-12.392,0c-1.863,0 -3.396,1.533 -3.396,3.396c0,1.863 1.533,3.396 3.396,3.396l20.375,-0c1.863,-0 3.396,-1.533 3.396,-3.396l0,-20.375c0,-1.863 -1.533,-3.396 -3.396,-3.396c-1.863,0 -3.396,1.533 -3.396,3.396l0,11.93c-15.388,-17.31 -23.856,-39.707 -23.77,-62.867c-0,-0.003 -0,-0.006 -0,-0.009c-0,-52.161 42.922,-95.083 95.083,-95.083c20.009,-0 39.517,6.316 55.729,18.043c0.58,0.42 1.278,0.647 1.993,0.647c1.864,-0 3.397,-1.534 3.397,-3.397c0,-1.088 -0.522,-2.113 -1.403,-2.751Z" style="fill-opacity:0.19;fill-rule:nonzero;"/>
    <rect x="252.604" y="205.061" width="6.792" height="6.792" style="fill-opacity:0.19;fill-rule:nonzero;"/>
    <path d="M217.569,222.383l4.801,-4.802l4.802,4.802l-4.802,4.802l-4.801,-4.802Z" style="fill-opacity:0.19;fill-rule:nonzero;"/>
    <rect x="205.062" y="252.603" width="6.792" height="6.792" style="fill-opacity:0.19;fill-rule:nonzero;"/>
    <path d="M217.562,289.61l4.801,-4.802l4.802,4.802l-4.802,4.802l-4.801,-4.802Z" style="fill-opacity:0.19;fill-rule:nonzero;"/>
    <rect x="252.604" y="300.144" width="6.792" height="6.792" style="fill-opacity:0.19;fill-rule:nonzero;"/>
    <path d="M284.789,289.614l4.801,-4.802l4.802,4.802l-4.802,4.802l-4.801,-4.802Z" style="fill-opacity:0.19;fill-rule:nonzero;"/>
    <rect x="300.146" y="252.603" width="6.792" height="6.792" style="fill-opacity:0.19;fill-rule:nonzero;"/>
    <path d="M284.796,222.387l4.801,-4.802l4.802,4.802l-4.802,4.802l-4.801,-4.802Z" style="fill-opacity:0.19;fill-rule:nonzero;"/>
</svg>
