<?xml version="1.0" encoding="UTF-8" standalone="no"?>
<!DOCTYPE svg PUBLIC "-//W3C//DTD SVG 1.1//EN" "http://www.w3.org/Graphics/SVG/1.1/DTD/svg11.dtd">
<svg width="100%" height="100%" viewBox="0 0 120 32" version="1.1" xmlns="http://www.w3.org/2000/svg" xmlns:xlink="http://www.w3.org/1999/xlink" xml:space="preserve" xmlns:serif="http://www.serif.com/" style="fill-rule:evenodd;clip-rule:evenodd;stroke-linejoin:round;stroke-miterlimit:2;">
    <path d="M15.225,30.483l-5.731,-10.753l0,10.753l-9.494,0l0,-29.975l14.113,0c2.452,0 4.547,0.43 6.286,1.291c1.739,0.861 3.044,2.033 3.913,3.514c0.87,1.482 1.305,3.155 1.305,5.018c0,2.004 -0.563,3.782 -1.69,5.334c-1.126,1.553 -2.744,2.667 -4.853,3.345l6.586,11.473l-10.435,0Zm-5.731,-17.019l3.763,0c0.913,0 1.597,-0.205 2.053,-0.614c0.456,-0.41 0.684,-1.052 0.684,-1.927c0,-0.79 -0.235,-1.411 -0.705,-1.863c-0.471,-0.451 -1.148,-0.677 -2.032,-0.677l-3.763,0l0,5.081Z" style="fill:#090b38;fill-rule:nonzero;"/>
    <path d="M77.107,0c2.851,0 5.46,0.656 7.826,1.969c2.366,1.312 4.241,3.14 5.624,5.483c1.382,2.342 2.074,4.981 2.074,7.917c0,2.935 -0.692,5.574 -2.074,7.917c-1.383,2.343 -3.265,4.177 -5.645,5.504c-2.381,1.327 -4.983,1.99 -7.805,1.99c-2.851,-0 -5.467,-0.663 -7.848,-1.99c-2.38,-1.327 -4.269,-3.161 -5.666,-5.504c-1.397,-2.343 -2.096,-4.982 -2.096,-7.917c0,-2.936 0.699,-5.575 2.096,-7.917c1.397,-2.343 3.286,-4.171 5.666,-5.483c2.381,-1.313 4.997,-1.969 7.848,-1.969Zm0,8.679c-1.91,-0 -3.379,0.6 -4.405,1.8c-1.026,1.199 -1.54,2.829 -1.54,4.89c0,2.032 0.514,3.648 1.54,4.847c1.026,1.2 2.495,1.8 4.405,1.8c1.882,-0 3.336,-0.6 4.362,-1.8c1.026,-1.199 1.539,-2.815 1.539,-4.847c0,-2.061 -0.513,-3.691 -1.539,-4.89c-1.026,-1.2 -2.48,-1.8 -4.362,-1.8Z" style="fill:#090b38;fill-rule:nonzero;"/>
    <path d="M119.83,0.508l0,7.452l-8.04,0l0,22.523l-9.494,0l0,-22.523l-7.955,0l0,-7.452l25.489,0Z" style="fill:#090b38;fill-rule:nonzero;"/>
    <g>
        <path d="M58.585,12.171c-1.863,-8.374 -10.173,-13.66 -18.547,-11.798c-8.374,1.863 -13.661,10.174 -11.798,18.548c1.863,8.374 10.173,13.66 18.547,11.798c8.374,-1.863 13.661,-10.174 11.798,-18.548Z" style="fill:url(#_Linear1);"/>
        <g>
            <clipPath id="_clip2">
                <path d="M58.585,12.171c-1.863,-8.374 -10.173,-13.66 -18.547,-11.798c-8.374,1.863 -13.661,10.174 -11.798,18.548c1.863,8.374 10.173,13.66 18.547,11.798c8.374,-1.863 13.661,-10.174 11.798,-18.548Z"/>
            </clipPath>
            <g clip-path="url(#_clip2)">
                <g>
                    <g id="right">
                        <path d="M53.421,16.259c-0.646,0 -1.171,-0.524 -1.171,-1.171c0,-1.937 -1.576,-3.514 -3.514,-3.514c-0.646,0 -1.171,-0.524 -1.171,-1.171c0,-0.646 0.525,-1.171 1.171,-1.171c3.231,0 5.856,2.626 5.856,5.856c0,0.647 -0.524,1.171 -1.171,1.171Z" style="fill:url(#_Linear3);fill-rule:nonzero;"/>
                        <path d="M47.564,8.988c0,-1.936 -1.576,-3.513 -3.514,-3.513c-0.646,0 -1.171,-0.524 -1.171,-1.172c0,-0.646 0.525,-1.171 1.171,-1.171c2.968,0 5.499,1.944 5.805,5.079c0.033,0.052 0.001,10.979 0.001,10.979c0,0.645 0.577,1.171 1.221,1.171c0.648,0 1.172,0.525 1.172,1.171c0,0.648 -0.524,1.172 -1.172,1.172c-1.779,0 -3.256,-1.332 -3.483,-3.052c-0.02,-0.041 -0.03,-0.083 -0.03,-0.127l0,-10.537Z" style="fill:url(#_Linear4);fill-rule:nonzero;"/>
                    </g>
                    <g id="left">
                        <path d="M33.064,16.248c-0.561,-0.323 -0.753,-1.039 -0.429,-1.6c0.323,-0.559 1.039,-0.752 1.6,-0.428c0.557,0.322 1.277,0.13 1.6,-0.429c0.323,-0.56 1.039,-0.752 1.599,-0.429c0.56,0.324 0.752,1.041 0.429,1.6c-0.969,1.678 -3.123,2.254 -4.799,1.286Z" style="fill:url(#_Linear5);fill-rule:nonzero;"/>
                        <path d="M35.846,12.821c0.34,-2.908 2.817,-5.171 5.816,-5.171c0.646,0 1.171,0.525 1.171,1.171c-0,0.647 -0.525,1.171 -1.171,1.171c-1.938,0 -3.514,1.577 -3.514,3.514l-0,6.05c-0.167,1.637 -1.846,2.981 -3.513,2.981c-0.647,0 -1.171,-0.524 -1.171,-1.172c-0,-0.646 0.524,-1.171 1.171,-1.171c0.644,0 1.22,-0.526 1.22,-1.171c-0,0 -0.035,-6.148 -0.009,-6.202Z" style="fill:url(#_Linear6);fill-rule:nonzero;"/>
                    </g>
                    <path d="M42.94,27.035c-0.647,0 -1.171,-0.367 -1.171,-0.821l0,-41.059c0,-0.453 0.524,-0.821 1.171,-0.821c0.646,0 1.171,0.368 1.171,0.821l0,41.059c0,0.454 -0.525,0.821 -1.171,0.821Z" style="fill:#fff;fill-rule:nonzero;"/>
                </g>
            </g>
        </g>
    </g>
    <defs>
        <linearGradient id="_Linear1" x1="0" y1="0" x2="1" y2="0" gradientUnits="userSpaceOnUse" gradientTransform="matrix(-16.6518,22.7584,-22.7584,-16.6518,47.6537,6.30617)"><stop offset="0" style="stop-color:#1da1ff;stop-opacity:1"/><stop offset="1" style="stop-color:#0268fc;stop-opacity:1"/></linearGradient>
        <linearGradient id="_Linear3" x1="0" y1="0" x2="1" y2="0" gradientUnits="userSpaceOnUse" gradientTransform="matrix(-8.67681,-1.31342,1.31342,-8.67681,57.1955,11.5717)"><stop offset="0" style="stop-color:#fff;stop-opacity:1"/><stop offset="0.58" style="stop-color:#f1f1f1;stop-opacity:1"/><stop offset="0.8" style="stop-color:#d2d2d2;stop-opacity:1"/><stop offset="1" style="stop-color:#b3b3b3;stop-opacity:1"/></linearGradient>
        <linearGradient id="_Linear4" x1="0" y1="0" x2="1" y2="0" gradientUnits="userSpaceOnUse" gradientTransform="matrix(-8.64383,-2.77633,2.77633,-8.64383,51.5231,5.90863)"><stop offset="0" style="stop-color:#fff;stop-opacity:1"/><stop offset="0.52" style="stop-color:#ededed;stop-opacity:1"/><stop offset="1" style="stop-color:#b2b2b2;stop-opacity:1"/></linearGradient>
        <linearGradient id="_Linear5" x1="0" y1="0" x2="1" y2="0" gradientUnits="userSpaceOnUse" gradientTransform="matrix(3.8029,-0.930653,0.930653,3.8029,32.8683,16.1073)"><stop offset="0" style="stop-color:#fff;stop-opacity:1"/><stop offset="0.48" style="stop-color:#ebebeb;stop-opacity:1"/><stop offset="1" style="stop-color:#b2b2b2;stop-opacity:1"/></linearGradient>
        <linearGradient id="_Linear6" x1="0" y1="0" x2="1" y2="0" gradientUnits="userSpaceOnUse" gradientTransform="matrix(9.9501,0.104624,-0.104624,9.9501,32.9292,8.34263)"><stop offset="0" style="stop-color:#fff;stop-opacity:1"/><stop offset="0.56" style="stop-color:#efefef;stop-opacity:1"/><stop offset="1" style="stop-color:#b2b2b2;stop-opacity:1"/></linearGradient>
    </defs>
</svg>
