<svg width="100%" height="100%" viewBox="0 0 24 24" version="1.1" xmlns="http://www.w3.org/2000/svg" xmlns:xlink="http://www.w3.org/1999/xlink" xml:space="preserve" xmlns:serif="http://www.serif.com/" style="fill-rule:evenodd;clip-rule:evenodd;stroke-linejoin:round;stroke-miterlimit:2;">
    <g>
        <path d="M23.712,9.395c-1.438,-6.464 -7.853,-10.544 -14.317,-9.107c-6.464,1.438 -10.545,7.853 -9.107,14.317c1.438,6.464 7.853,10.544 14.317,9.107c6.464,-1.438 10.545,-7.853 9.107,-14.317Z" style="fill:url(#_Linear1);"/>
        <g>
            <clipPath id="_clip2">
                <path d="M23.712,9.395c-1.438,-6.464 -7.853,-10.544 -14.317,-9.107c-6.464,1.438 -10.545,7.853 -9.107,14.317c1.438,6.464 7.853,10.544 14.317,9.107c6.464,-1.438 10.545,-7.853 9.107,-14.317Z"/>
            </clipPath>
            <g clip-path="url(#_clip2)">
                <path d="M19.726,12.551c-0.499,-0 -0.904,-0.405 -0.904,-0.904c-0,-1.496 -1.217,-2.713 -2.713,-2.713c-0.498,0 -0.904,-0.404 -0.904,-0.904c0,-0.498 0.406,-0.904 0.904,-0.904c2.494,0 4.52,2.027 4.52,4.521c0,0.499 -0.404,0.904 -0.903,0.904Z" style="fill:url(#_Linear3);fill-rule:nonzero;"/>
                <g>
                    <g id="right">
                        <path d="M15.205,6.938c-0,-1.494 -1.217,-2.712 -2.713,-2.712c-0.499,0 -0.904,-0.404 -0.904,-0.904c0,-0.499 0.405,-0.904 0.904,-0.904c2.291,-0 4.245,1.5 4.481,3.92c0.025,0.04 0.001,8.475 0.001,8.475c-0,0.498 0.445,0.904 0.942,0.904c0.5,-0 0.905,0.405 0.905,0.904c-0,0.5 -0.405,0.904 -0.905,0.904c-1.373,0 -2.513,-1.028 -2.688,-2.355c-0.016,-0.032 -0.023,-0.065 -0.023,-0.098l-0,-8.134Z" style="fill:url(#_Linear4);fill-rule:nonzero;"/>
                    </g>
                    <g id="left">
                        <path d="M4.012,12.542c-0.433,-0.249 -0.581,-0.802 -0.331,-1.235c0.249,-0.432 0.802,-0.58 1.235,-0.33c0.43,0.248 0.986,0.1 1.235,-0.332c0.249,-0.432 0.802,-0.58 1.234,-0.331c0.432,0.25 0.581,0.804 0.331,1.235c-0.748,1.296 -2.41,1.74 -3.704,0.993Z" style="fill:url(#_Linear5);fill-rule:nonzero;"/>
                        <path d="M6.159,9.897c0.263,-2.245 2.175,-3.992 4.49,-3.992c0.498,0 0.904,0.405 0.904,0.904c-0,0.5 -0.406,0.904 -0.904,0.904c-1.496,0 -2.713,1.217 -2.713,2.712l0,4.67c-0.129,1.264 -1.425,2.301 -2.711,2.301c-0.5,0 -0.904,-0.404 -0.904,-0.904c-0,-0.499 0.404,-0.904 0.904,-0.904c0.497,-0 0.941,-0.406 0.941,-0.904c0,0 -0.027,-4.746 -0.007,-4.787Z" style="fill:url(#_Linear6);fill-rule:nonzero;"/>
                    </g>
                    <path d="M11.635,20.868c-0.499,0 -0.904,-0.283 -0.904,-0.633l0,-31.694c0,-0.349 0.405,-0.633 0.904,-0.633c0.499,-0 0.904,0.284 0.904,0.633l0,31.694c0,0.35 -0.405,0.633 -0.904,0.633Z" style="fill:#fff;fill-rule:nonzero;"/>
                </g>
            </g>
        </g>
    </g>
    <defs>
        <linearGradient id="_Linear1" x1="0" y1="0" x2="1" y2="0" gradientUnits="userSpaceOnUse" gradientTransform="matrix(-12.8535,17.5672,-17.5672,-12.8535,15.2738,4.86794)"><stop offset="0" style="stop-color:#1da1ff;stop-opacity:1"/><stop offset="1" style="stop-color:#0268fc;stop-opacity:1"/></linearGradient>
        <linearGradient id="_Linear3" x1="0" y1="0" x2="1" y2="0" gradientUnits="userSpaceOnUse" gradientTransform="matrix(-6.69761,-1.01383,1.01383,-6.69761,22.6391,8.9324)"><stop offset="0" style="stop-color:#fff;stop-opacity:1"/><stop offset="0.58" style="stop-color:#f1f1f1;stop-opacity:1"/><stop offset="0.8" style="stop-color:#d2d2d2;stop-opacity:1"/><stop offset="1" style="stop-color:#b3b3b3;stop-opacity:1"/></linearGradient>
        <linearGradient id="_Linear4" x1="0" y1="0" x2="1" y2="0" gradientUnits="userSpaceOnUse" gradientTransform="matrix(-6.67216,-2.14304,2.14304,-6.67216,18.2606,4.56108)"><stop offset="0" style="stop-color:#fff;stop-opacity:1"/><stop offset="0.52" style="stop-color:#ededed;stop-opacity:1"/><stop offset="1" style="stop-color:#b2b2b2;stop-opacity:1"/></linearGradient>
        <linearGradient id="_Linear5" x1="0" y1="0" x2="1" y2="0" gradientUnits="userSpaceOnUse" gradientTransform="matrix(2.93545,-0.718369,0.718369,2.93545,3.86095,12.4334)"><stop offset="0" style="stop-color:#fff;stop-opacity:1"/><stop offset="0.48" style="stop-color:#ebebeb;stop-opacity:1"/><stop offset="1" style="stop-color:#b2b2b2;stop-opacity:1"/></linearGradient>
        <linearGradient id="_Linear6" x1="0" y1="0" x2="1" y2="0" gradientUnits="userSpaceOnUse" gradientTransform="matrix(7.68046,0.0807591,-0.0807591,7.68046,3.90796,6.43988)"><stop offset="0" style="stop-color:#fff;stop-opacity:1"/><stop offset="0.56" style="stop-color:#efefef;stop-opacity:1"/><stop offset="1" style="stop-color:#b2b2b2;stop-opacity:1"/></linearGradient>
    </defs>
</svg>
